<?xml version="1.0" standalone="no"?>
<!DOCTYPE svg PUBLIC "-//W3C//DTD SVG 20010904//EN"
 "http://www.w3.org/TR/2001/REC-SVG-20010904/DTD/svg10.dtd">
<svg version="1.2" baseProfile="tiny-ps" id="Layer_1" xmlns="http://www.w3.org/2000/svg" xmlns:xlink="http://www.w3.org/1999/xlink" viewBox="0 0 300.000000 300.000000" preserveAspectRatio="xMidYMid meet">
<title>Yoan M</title>
<g transform="translate(0.000000,300.000000) scale(0.100000,-0.100000)"
fill="#000000" stroke="none">
<path d="M513 2226 c3 -7 49 -84 101 -169 l96 -155 0 -126 0 -126 40 0 40 0 0
128 0 128 96 153 c53 85 98 160 101 167 4 10 -5 14 -33 14 l-39 0 -80 -130
c-44 -71 -82 -130 -85 -130 -3 1 -40 59 -83 130 l-78 130 -41 0 c-30 0 -39 -3
-35 -14z"/>
<path d="M1154 2081 c-93 -43 -136 -173 -99 -298 28 -96 91 -143 190 -143 70
0 112 17 152 63 40 46 56 103 51 187 -4 79 -30 133 -81 174 -32 26 -48 31
-105 34 -50 2 -77 -2 -108 -17z m146 -54 c49 -25 70 -72 70 -157 0 -64 -4 -83
-23 -111 -42 -62 -108 -76 -168 -36 -40 27 -58 71 -58 147 0 76 18 120 58 147
38 25 83 29 121 10z"/>
<path d="M1615 2091 c-26 -5 -30 -11 -33 -45 -3 -34 -1 -38 15 -31 40 16 132
27 166 21 39 -7 77 -46 77 -77 0 -15 -8 -19 -37 -19 -60 0 -149 -17 -189 -36
-49 -24 -74 -67 -74 -130 0 -86 55 -134 152 -134 38 0 65 7 97 25 52 30 51 30
51 5 0 -16 7 -20 35 -20 l35 0 0 175 c0 204 -6 225 -73 256 -43 19 -155 24
-222 10z m225 -270 c0 -56 -2 -61 -32 -83 -26 -18 -46 -23 -97 -23 -57 0 -66
3 -83 26 -26 34 -17 81 19 104 27 18 92 32 156 34 l37 1 0 -59z"/>
<path d="M2185 2076 c-27 -14 -51 -26 -52 -26 -2 0 -3 9 -3 20 0 16 -7 20 -35
20 l-35 0 0 -220 0 -220 35 0 35 0 0 164 0 164 36 23 c20 12 58 24 85 27 41 4
51 1 73 -21 26 -26 26 -27 26 -192 l0 -165 40 0 40 0 0 158 c0 86 -5 173 -10
193 -26 92 -134 127 -235 75z"/>
<path d="M1237 1243 c-4 -3 -7 -136 -7 -295 l0 -288 40 0 40 0 2 246 3 246 77
-163 c71 -151 80 -164 104 -164 24 0 32 13 103 162 l76 162 3 -244 2 -245 40
0 40 0 0 295 0 295 -53 0 -54 0 -73 -160 c-41 -88 -77 -160 -80 -160 -3 0 -40
72 -82 160 l-76 160 -50 0 c-27 0 -52 -3 -55 -7z"/>
</g>
</svg>
